<?xml version="1.0" encoding="utf-8" standalone="no"?>
<!DOCTYPE svg PUBLIC "-//W3C//DTD SVG 1.1//EN"
  "http://www.w3.org/Graphics/SVG/1.1/DTD/svg11.dtd">
<!-- Created with matplotlib (http://matplotlib.org/) -->
<svg height="432pt" version="1.1" viewBox="0 0 720 432" width="720pt" xmlns="http://www.w3.org/2000/svg" xmlns:xlink="http://www.w3.org/1999/xlink">
 <defs>
  <style type="text/css">
*{stroke-linecap:butt;stroke-linejoin:round;}
  </style>
 </defs>
 <g id="figure_1">
  <g id="patch_1">
   <path d="M 0 432 
L 720 432 
L 720 0 
L 0 0 
z
" style="fill:#ffffff;"/>
  </g>
  <g id="axes_1">
   <g id="patch_2">
    <path d="M 75.175 395.7 
L 694.2625 395.7 
L 694.2625 14.8 
L 75.175 14.8 
z
" style="fill:#ffffff;"/>
   </g>
   <g id="patch_3">
    <path clip-path="url(#p2c1eb53916)" d="M 42.473668 395.7 
L 58.815355 395.7 
L 58.815355 373.377608 
L 42.473668 373.377608 
z
" style="fill:#040273;opacity:0.7;"/>
   </g>
   <g id="patch_4">
    <path clip-path="url(#p2c1eb53916)" d="M 58.815355 395.7 
L 75.157042 395.7 
L 75.157042 395.7 
L 58.815355 395.7 
z
" style="fill:#040273;opacity:0.7;"/>
   </g>
   <g id="patch_5">
    <path clip-path="url(#p2c1eb53916)" d="M 75.157042 395.7 
L 91.498728 395.7 
L 91.498728 367.608072 
L 75.157042 367.608072 
z
" style="fill:#040273;opacity:0.7;"/>
   </g>
   <g id="patch_6">
    <path clip-path="url(#p2c1eb53916)" d="M 91.498728 395.7 
L 107.840415 395.7 
L 107.840415 364.308561 
L 91.498728 364.308561 
z
" style="fill:#040273;opacity:0.7;"/>
   </g>
   <g id="patch_7">
    <path clip-path="url(#p2c1eb53916)" d="M 107.840415 395.7 
L 124.182102 395.7 
L 124.182102 324.198301 
L 107.840415 324.198301 
z
" style="fill:#040273;opacity:0.7;"/>
   </g>
   <g id="patch_8">
    <path clip-path="url(#p2c1eb53916)" d="M 124.182102 395.7 
L 140.523788 395.7 
L 140.523788 327.719009 
L 124.182102 327.719009 
z
" style="fill:#040273;opacity:0.7;"/>
   </g>
   <g id="patch_9">
    <path clip-path="url(#p2c1eb53916)" d="M 140.523788 395.7 
L 156.865475 395.7 
L 156.865475 257.655086 
L 140.523788 257.655086 
z
" style="fill:#040273;opacity:0.7;"/>
   </g>
   <g id="patch_10">
    <path clip-path="url(#p2c1eb53916)" d="M 156.865475 395.7 
L 173.207161 395.7 
L 173.207161 264.512171 
L 156.865475 264.512171 
z
" style="fill:#040273;opacity:0.7;"/>
   </g>
   <g id="patch_11">
    <path clip-path="url(#p2c1eb53916)" d="M 173.207161 395.7 
L 189.548848 395.7 
L 189.548848 192.770843 
L 173.207161 192.770843 
z
" style="fill:#040273;opacity:0.7;"/>
   </g>
   <g id="patch_12">
    <path clip-path="url(#p2c1eb53916)" d="M 189.548848 395.7 
L 205.890535 395.7 
L 205.890535 172.457651 
L 189.548848 172.457651 
z
" style="fill:#040273;opacity:0.7;"/>
   </g>
   <g id="patch_13">
    <path clip-path="url(#p2c1eb53916)" d="M 205.890535 395.7 
L 222.232221 395.7 
L 222.232221 123.9235 
L 205.890535 123.9235 
z
" style="fill:#040273;opacity:0.7;"/>
   </g>
   <g id="patch_14">
    <path clip-path="url(#p2c1eb53916)" d="M 222.232221 395.7 
L 238.573908 395.7 
L 238.573908 130.44879 
L 222.232221 130.44879 
z
" style="fill:#040273;opacity:0.7;"/>
   </g>
   <g id="patch_15">
    <path clip-path="url(#p2c1eb53916)" d="M 238.573908 395.7 
L 254.915594 395.7 
L 254.915594 107.407511 
L 238.573908 107.407511 
z
" style="fill:#040273;opacity:0.7;"/>
   </g>
   <g id="patch_16">
    <path clip-path="url(#p2c1eb53916)" d="M 254.915594 395.7 
L 271.257281 395.7 
L 271.257281 125.195378 
L 254.915594 125.195378 
z
" style="fill:#040273;opacity:0.7;"/>
   </g>
   <g id="patch_17">
    <path clip-path="url(#p2c1eb53916)" d="M 271.257281 395.7 
L 287.598968 395.7 
L 287.598968 142.76205 
L 271.257281 142.76205 
z
" style="fill:#040273;opacity:0.7;"/>
   </g>
   <g id="patch_18">
    <path clip-path="url(#p2c1eb53916)" d="M 287.598968 395.7 
L 303.940654 395.7 
L 303.940654 170.374719 
L 287.598968 170.374719 
z
" style="fill:#040273;opacity:0.7;"/>
   </g>
   <g id="patch_19">
    <path clip-path="url(#p2c1eb53916)" d="M 303.940654 395.7 
L 320.282341 395.7 
L 320.282341 208.512645 
L 303.940654 208.512645 
z
" style="fill:#040273;opacity:0.7;"/>
   </g>
   <g id="patch_20">
    <path clip-path="url(#p2c1eb53916)" d="M 320.282341 395.7 
L 336.624027 395.7 
L 336.624027 237.599956 
L 320.282341 237.599956 
z
" style="fill:#040273;opacity:0.7;"/>
   </g>
   <g id="patch_21">
    <path clip-path="url(#p2c1eb53916)" d="M 336.624027 395.7 
L 352.965714 395.7 
L 352.965714 270.447605 
L 336.624027 270.447605 
z
" style="fill:#040273;opacity:0.7;"/>
   </g>
   <g id="patch_22">
    <path clip-path="url(#p2c1eb53916)" d="M 352.965714 395.7 
L 369.307401 395.7 
L 369.307401 294.263071 
L 352.965714 294.263071 
z
" style="fill:#040273;opacity:0.7;"/>
   </g>
   <g id="patch_23">
    <path clip-path="url(#p2c1eb53916)" d="M 369.307401 395.7 
L 385.649087 395.7 
L 385.649087 316.3274 
L 369.307401 316.3274 
z
" style="fill:#040273;opacity:0.7;"/>
   </g>
   <g id="patch_24">
    <path clip-path="url(#p2c1eb53916)" d="M 385.649087 395.7 
L 401.990774 395.7 
L 401.990774 336.327231 
L 385.649087 336.327231 
z
" style="fill:#040273;opacity:0.7;"/>
   </g>
   <g id="patch_25">
    <path clip-path="url(#p2c1eb53916)" d="M 401.990774 395.7 
L 418.33246 395.7 
L 418.33246 351.774105 
L 401.990774 351.774105 
z
" style="fill:#040273;opacity:0.7;"/>
   </g>
   <g id="patch_26">
    <path clip-path="url(#p2c1eb53916)" d="M 418.33246 395.7 
L 434.674147 395.7 
L 434.674147 362.575857 
L 418.33246 362.575857 
z
" style="fill:#040273;opacity:0.7;"/>
   </g>
   <g id="patch_27">
    <path clip-path="url(#p2c1eb53916)" d="M 434.674147 395.7 
L 451.015834 395.7 
L 451.015834 371.331543 
L 434.674147 371.331543 
z
" style="fill:#040273;opacity:0.7;"/>
   </g>
   <g id="patch_28">
    <path clip-path="url(#p2c1eb53916)" d="M 451.015834 395.7 
L 467.35752 395.7 
L 467.35752 378.299226 
L 451.015834 378.299226 
z
" style="fill:#040273;opacity:0.7;"/>
   </g>
   <g id="patch_29">
    <path clip-path="url(#p2c1eb53916)" d="M 467.35752 395.7 
L 483.699207 395.7 
L 483.699207 383.534204 
L 467.35752 383.534204 
z
" style="fill:#040273;opacity:0.7;"/>
   </g>
   <g id="patch_30">
    <path clip-path="url(#p2c1eb53916)" d="M 483.699207 395.7 
L 500.040893 395.7 
L 500.040893 386.686251 
L 483.699207 386.686251 
z
" style="fill:#040273;opacity:0.7;"/>
   </g>
   <g id="patch_31">
    <path clip-path="url(#p2c1eb53916)" d="M 500.040893 395.7 
L 516.38258 395.7 
L 516.38258 391.054878 
L 500.040893 391.054878 
z
" style="fill:#040273;opacity:0.7;"/>
   </g>
   <g id="patch_32">
    <path clip-path="url(#p2c1eb53916)" d="M 516.38258 395.7 
L 532.724267 395.7 
L 532.724267 392.363623 
L 516.38258 392.363623 
z
" style="fill:#040273;opacity:0.7;"/>
   </g>
   <g id="patch_33">
    <path clip-path="url(#p2c1eb53916)" d="M 532.724267 395.7 
L 549.065953 395.7 
L 549.065953 393.340573 
L 532.724267 393.340573 
z
" style="fill:#040273;opacity:0.7;"/>
   </g>
   <g id="patch_34">
    <path clip-path="url(#p2c1eb53916)" d="M 549.065953 395.7 
L 565.40764 395.7 
L 565.40764 394.317523 
L 549.065953 394.317523 
z
" style="fill:#040273;opacity:0.7;"/>
   </g>
   <g id="patch_35">
    <path clip-path="url(#p2c1eb53916)" d="M 565.40764 395.7 
L 581.749327 395.7 
L 581.749327 395.017978 
L 565.40764 395.017978 
z
" style="fill:#040273;opacity:0.7;"/>
   </g>
   <g id="patch_36">
    <path clip-path="url(#p2c1eb53916)" d="M 581.749327 395.7 
L 598.091013 395.7 
L 598.091013 395.165442 
L 581.749327 395.165442 
z
" style="fill:#040273;opacity:0.7;"/>
   </g>
   <g id="patch_37">
    <path clip-path="url(#p2c1eb53916)" d="M 598.091013 395.7 
L 614.4327 395.7 
L 614.4327 395.478804 
L 598.091013 395.478804 
z
" style="fill:#040273;opacity:0.7;"/>
   </g>
   <g id="patch_38">
    <path clip-path="url(#p2c1eb53916)" d="M 614.4327 395.7 
L 630.774386 395.7 
L 630.774386 395.626268 
L 614.4327 395.626268 
z
" style="fill:#040273;opacity:0.7;"/>
   </g>
   <g id="patch_39">
    <path clip-path="url(#p2c1eb53916)" d="M 630.774386 395.7 
L 647.116073 395.7 
L 647.116073 395.607835 
L 630.774386 395.607835 
z
" style="fill:#040273;opacity:0.7;"/>
   </g>
   <g id="patch_40">
    <path clip-path="url(#p2c1eb53916)" d="M 647.116073 395.7 
L 663.45776 395.7 
L 663.45776 395.626268 
L 647.116073 395.626268 
z
" style="fill:#040273;opacity:0.7;"/>
   </g>
   <g id="patch_41">
    <path clip-path="url(#p2c1eb53916)" d="M 663.45776 395.7 
L 679.799446 395.7 
L 679.799446 395.534103 
L 663.45776 395.534103 
z
" style="fill:#040273;opacity:0.7;"/>
   </g>
   <g id="patch_42">
    <path clip-path="url(#p2c1eb53916)" d="M 42.473668 395.7 
L 62.098868 395.7 
L 62.098868 388.474255 
L 42.473668 388.474255 
z
" style="fill:#ff7f0e;opacity:0.6;"/>
   </g>
   <g id="patch_43">
    <path clip-path="url(#p2c1eb53916)" d="M 62.098868 395.7 
L 81.724068 395.7 
L 81.724068 383.773834 
L 62.098868 383.773834 
z
" style="fill:#ff7f0e;opacity:0.6;"/>
   </g>
   <g id="patch_44">
    <path clip-path="url(#p2c1eb53916)" d="M 81.724068 395.7 
L 101.349268 395.7 
L 101.349268 374.151795 
L 81.724068 374.151795 
z
" style="fill:#ff7f0e;opacity:0.6;"/>
   </g>
   <g id="patch_45">
    <path clip-path="url(#p2c1eb53916)" d="M 101.349268 395.7 
L 120.974467 395.7 
L 120.974467 357.451476 
L 101.349268 357.451476 
z
" style="fill:#ff7f0e;opacity:0.6;"/>
   </g>
   <g id="patch_46">
    <path clip-path="url(#p2c1eb53916)" d="M 120.974467 395.7 
L 140.599667 395.7 
L 140.599667 328.511629 
L 120.974467 328.511629 
z
" style="fill:#ff7f0e;opacity:0.6;"/>
   </g>
   <g id="patch_47">
    <path clip-path="url(#p2c1eb53916)" d="M 140.599667 395.7 
L 160.224867 395.7 
L 160.224867 292.806862 
L 140.599667 292.806862 
z
" style="fill:#ff7f0e;opacity:0.6;"/>
   </g>
   <g id="patch_48">
    <path clip-path="url(#p2c1eb53916)" d="M 160.224867 395.7 
L 179.850066 395.7 
L 179.850066 251.682786 
L 160.224867 251.682786 
z
" style="fill:#ff7f0e;opacity:0.6;"/>
   </g>
   <g id="patch_49">
    <path clip-path="url(#p2c1eb53916)" d="M 179.850066 395.7 
L 199.475266 395.7 
L 199.475266 204.512679 
L 179.850066 204.512679 
z
" style="fill:#ff7f0e;opacity:0.6;"/>
   </g>
   <g id="patch_50">
    <path clip-path="url(#p2c1eb53916)" d="M 199.475266 395.7 
L 219.100466 395.7 
L 219.100466 155.812631 
L 199.475266 155.812631 
z
" style="fill:#ff7f0e;opacity:0.6;"/>
   </g>
   <g id="patch_51">
    <path clip-path="url(#p2c1eb53916)" d="M 219.100466 395.7 
L 238.725665 395.7 
L 238.725665 120.974216 
L 219.100466 120.974216 
z
" style="fill:#ff7f0e;opacity:0.6;"/>
   </g>
   <g id="patch_52">
    <path clip-path="url(#p2c1eb53916)" d="M 238.725665 395.7 
L 258.350865 395.7 
L 258.350865 128.49489 
L 238.725665 128.49489 
z
" style="fill:#ff7f0e;opacity:0.6;"/>
   </g>
   <g id="patch_53">
    <path clip-path="url(#p2c1eb53916)" d="M 258.350865 395.7 
L 277.976065 395.7 
L 277.976065 144.384156 
L 258.350865 144.384156 
z
" style="fill:#ff7f0e;opacity:0.6;"/>
   </g>
   <g id="patch_54">
    <path clip-path="url(#p2c1eb53916)" d="M 277.976065 395.7 
L 297.601264 395.7 
L 297.601264 162.153591 
L 277.976065 162.153591 
z
" style="fill:#ff7f0e;opacity:0.6;"/>
   </g>
   <g id="patch_55">
    <path clip-path="url(#p2c1eb53916)" d="M 297.601264 395.7 
L 317.226464 395.7 
L 317.226464 178.06129 
L 297.601264 178.06129 
z
" style="fill:#ff7f0e;opacity:0.6;"/>
   </g>
   <g id="patch_56">
    <path clip-path="url(#p2c1eb53916)" d="M 317.226464 395.7 
L 336.851664 395.7 
L 336.851664 191.664862 
L 317.226464 191.664862 
z
" style="fill:#ff7f0e;opacity:0.6;"/>
   </g>
   <g id="patch_57">
    <path clip-path="url(#p2c1eb53916)" d="M 336.851664 395.7 
L 356.476864 395.7 
L 356.476864 213.102468 
L 336.851664 213.102468 
z
" style="fill:#ff7f0e;opacity:0.6;"/>
   </g>
   <g id="patch_58">
    <path clip-path="url(#p2c1eb53916)" d="M 356.476864 395.7 
L 376.102063 395.7 
L 376.102063 235.959417 
L 356.476864 235.959417 
z
" style="fill:#ff7f0e;opacity:0.6;"/>
   </g>
   <g id="patch_59">
    <path clip-path="url(#p2c1eb53916)" d="M 376.102063 395.7 
L 395.727263 395.7 
L 395.727263 255.185061 
L 376.102063 255.185061 
z
" style="fill:#ff7f0e;opacity:0.6;"/>
   </g>
   <g id="patch_60">
    <path clip-path="url(#p2c1eb53916)" d="M 395.727263 395.7 
L 415.352463 395.7 
L 415.352463 278.83463 
L 395.727263 278.83463 
z
" style="fill:#ff7f0e;opacity:0.6;"/>
   </g>
   <g id="patch_61">
    <path clip-path="url(#p2c1eb53916)" d="M 415.352463 395.7 
L 434.977662 395.7 
L 434.977662 296.567199 
L 415.352463 296.567199 
z
" style="fill:#ff7f0e;opacity:0.6;"/>
   </g>
   <g id="patch_62">
    <path clip-path="url(#p2c1eb53916)" d="M 434.977662 395.7 
L 454.602862 395.7 
L 454.602862 309.691512 
L 434.977662 309.691512 
z
" style="fill:#ff7f0e;opacity:0.6;"/>
   </g>
   <g id="patch_63">
    <path clip-path="url(#p2c1eb53916)" d="M 454.602862 395.7 
L 474.228062 395.7 
L 474.228062 327.166018 
L 454.602862 327.166018 
z
" style="fill:#ff7f0e;opacity:0.6;"/>
   </g>
   <g id="patch_64">
    <path clip-path="url(#p2c1eb53916)" d="M 474.228062 395.7 
L 493.853261 395.7 
L 493.853261 341.193549 
L 474.228062 341.193549 
z
" style="fill:#ff7f0e;opacity:0.6;"/>
   </g>
   <g id="patch_65">
    <path clip-path="url(#p2c1eb53916)" d="M 493.853261 395.7 
L 513.478461 395.7 
L 513.478461 351.995301 
L 493.853261 351.995301 
z
" style="fill:#ff7f0e;opacity:0.6;"/>
   </g>
   <g id="patch_66">
    <path clip-path="url(#p2c1eb53916)" d="M 513.478461 395.7 
L 533.103661 395.7 
L 533.103661 363.737137 
L 513.478461 363.737137 
z
" style="fill:#ff7f0e;opacity:0.6;"/>
   </g>
   <g id="patch_67">
    <path clip-path="url(#p2c1eb53916)" d="M 533.103661 395.7 
L 552.72886 395.7 
L 552.72886 371.644904 
L 533.103661 371.644904 
z
" style="fill:#ff7f0e;opacity:0.6;"/>
   </g>
   <g id="patch_68">
    <path clip-path="url(#p2c1eb53916)" d="M 552.72886 395.7 
L 572.35406 395.7 
L 572.35406 379.184011 
L 552.72886 379.184011 
z
" style="fill:#ff7f0e;opacity:0.6;"/>
   </g>
   <g id="patch_69">
    <path clip-path="url(#p2c1eb53916)" d="M 572.35406 395.7 
L 591.97926 395.7 
L 591.97926 384.750784 
L 572.35406 384.750784 
z
" style="fill:#ff7f0e;opacity:0.6;"/>
   </g>
   <g id="patch_70">
    <path clip-path="url(#p2c1eb53916)" d="M 591.97926 395.7 
L 611.60446 395.7 
L 611.60446 389.045678 
L 591.97926 389.045678 
z
" style="fill:#ff7f0e;opacity:0.6;"/>
   </g>
   <g id="patch_71">
    <path clip-path="url(#p2c1eb53916)" d="M 611.60446 395.7 
L 631.229659 395.7 
L 631.229659 391.571003 
L 611.60446 391.571003 
z
" style="fill:#ff7f0e;opacity:0.6;"/>
   </g>
   <g id="patch_72">
    <path clip-path="url(#p2c1eb53916)" d="M 631.229659 395.7 
L 650.854859 395.7 
L 650.854859 393.359006 
L 631.229659 393.359006 
z
" style="fill:#ff7f0e;opacity:0.6;"/>
   </g>
   <g id="patch_73">
    <path clip-path="url(#p2c1eb53916)" d="M 650.854859 395.7 
L 670.480059 395.7 
L 670.480059 394.188492 
L 650.854859 394.188492 
z
" style="fill:#ff7f0e;opacity:0.6;"/>
   </g>
   <g id="patch_74">
    <path clip-path="url(#p2c1eb53916)" d="M 670.480059 395.7 
L 690.105258 395.7 
L 690.105258 394.999545 
L 670.480059 394.999545 
z
" style="fill:#ff7f0e;opacity:0.6;"/>
   </g>
   <g id="patch_75">
    <path clip-path="url(#p2c1eb53916)" d="M 690.105258 395.7 
L 709.730458 395.7 
L 709.730458 395.33134 
L 690.105258 395.33134 
z
" style="fill:#ff7f0e;opacity:0.6;"/>
   </g>
   <g id="patch_76">
    <path clip-path="url(#p2c1eb53916)" d="M 709.730458 395.7 
L 729.355658 395.7 
L 729.355658 395.607835 
L 709.730458 395.607835 
z
" style="fill:#ff7f0e;opacity:0.6;"/>
   </g>
   <g id="patch_77">
    <path clip-path="url(#p2c1eb53916)" d="M 729.355658 395.7 
L 748.980857 395.7 
L 748.980857 395.570969 
L 729.355658 395.570969 
z
" style="fill:#ff7f0e;opacity:0.6;"/>
   </g>
   <g id="patch_78">
    <path clip-path="url(#p2c1eb53916)" d="M 748.980857 395.7 
L 768.606057 395.7 
L 768.606057 395.589402 
L 748.980857 395.589402 
z
" style="fill:#ff7f0e;opacity:0.6;"/>
   </g>
   <g id="patch_79">
    <path clip-path="url(#p2c1eb53916)" d="M 768.606057 395.7 
L 788.231257 395.7 
L 788.231257 395.663134 
L 768.606057 395.663134 
z
" style="fill:#ff7f0e;opacity:0.6;"/>
   </g>
   <g id="patch_80">
    <path clip-path="url(#p2c1eb53916)" d="M 788.231257 395.7 
L 807.856456 395.7 
L 807.856456 395.7 
L 788.231257 395.7 
z
" style="fill:#ff7f0e;opacity:0.6;"/>
   </g>
   <g id="patch_81">
    <path clip-path="url(#p2c1eb53916)" d="M 42.473668 395.7 
L 55.76907 395.7 
L 55.76907 395.7 
L 42.473668 395.7 
z
" style="fill:#009337;opacity:0.5;"/>
   </g>
   <g id="patch_82">
    <path clip-path="url(#p2c1eb53916)" d="M 55.76907 395.7 
L 69.064472 395.7 
L 69.064472 395.7 
L 55.76907 395.7 
z
" style="fill:#009337;opacity:0.5;"/>
   </g>
   <g id="patch_83">
    <path clip-path="url(#p2c1eb53916)" d="M 69.064472 395.7 
L 82.359873 395.7 
L 82.359873 32.938095 
L 69.064472 32.938095 
z
" style="fill:#009337;opacity:0.5;"/>
   </g>
   <g id="patch_84">
    <path clip-path="url(#p2c1eb53916)" d="M 82.359873 395.7 
L 95.655275 395.7 
L 95.655275 231.572358 
L 82.359873 231.572358 
z
" style="fill:#009337;opacity:0.5;"/>
   </g>
   <g id="patch_85">
    <path clip-path="url(#p2c1eb53916)" d="M 95.655275 395.7 
L 108.950676 395.7 
L 108.950676 212.549477 
L 95.655275 212.549477 
z
" style="fill:#009337;opacity:0.5;"/>
   </g>
   <g id="patch_86">
    <path clip-path="url(#p2c1eb53916)" d="M 108.950676 395.7 
L 122.246078 395.7 
L 122.246078 273.986745 
L 108.950676 273.986745 
z
" style="fill:#009337;opacity:0.5;"/>
   </g>
   <g id="patch_87">
    <path clip-path="url(#p2c1eb53916)" d="M 122.246078 395.7 
L 135.541479 395.7 
L 135.541479 174.503717 
L 122.246078 174.503717 
z
" style="fill:#009337;opacity:0.5;"/>
   </g>
   <g id="patch_88">
    <path clip-path="url(#p2c1eb53916)" d="M 135.541479 395.7 
L 148.836881 395.7 
L 148.836881 222.521743 
L 135.541479 222.521743 
z
" style="fill:#009337;opacity:0.5;"/>
   </g>
   <g id="patch_89">
    <path clip-path="url(#p2c1eb53916)" d="M 148.836881 395.7 
L 162.132283 395.7 
L 162.132283 187.664895 
L 148.836881 187.664895 
z
" style="fill:#009337;opacity:0.5;"/>
   </g>
   <g id="patch_90">
    <path clip-path="url(#p2c1eb53916)" d="M 162.132283 395.7 
L 175.427684 395.7 
L 175.427684 184.807777 
L 162.132283 184.807777 
z
" style="fill:#009337;opacity:0.5;"/>
   </g>
   <g id="patch_91">
    <path clip-path="url(#p2c1eb53916)" d="M 175.427684 395.7 
L 188.723086 395.7 
L 188.723086 158.024593 
L 175.427684 158.024593 
z
" style="fill:#009337;opacity:0.5;"/>
   </g>
   <g id="patch_92">
    <path clip-path="url(#p2c1eb53916)" d="M 188.723086 395.7 
L 202.018487 395.7 
L 202.018487 191.53583 
L 188.723086 191.53583 
z
" style="fill:#009337;opacity:0.5;"/>
   </g>
   <g id="patch_93">
    <path clip-path="url(#p2c1eb53916)" d="M 202.018487 395.7 
L 215.313889 395.7 
L 215.313889 187.369967 
L 202.018487 187.369967 
z
" style="fill:#009337;opacity:0.5;"/>
   </g>
   <g id="patch_94">
    <path clip-path="url(#p2c1eb53916)" d="M 215.313889 395.7 
L 228.60929 395.7 
L 228.60929 217.895054 
L 215.313889 217.895054 
z
" style="fill:#009337;opacity:0.5;"/>
   </g>
   <g id="patch_95">
    <path clip-path="url(#p2c1eb53916)" d="M 228.60929 395.7 
L 241.904692 395.7 
L 241.904692 227.535526 
L 228.60929 227.535526 
z
" style="fill:#009337;opacity:0.5;"/>
   </g>
   <g id="patch_96">
    <path clip-path="url(#p2c1eb53916)" d="M 241.904692 395.7 
L 255.200094 395.7 
L 255.200094 252.770335 
L 241.904692 252.770335 
z
" style="fill:#009337;opacity:0.5;"/>
   </g>
   <g id="patch_97">
    <path clip-path="url(#p2c1eb53916)" d="M 255.200094 395.7 
L 268.495495 395.7 
L 268.495495 273.599652 
L 255.200094 273.599652 
z
" style="fill:#009337;opacity:0.5;"/>
   </g>
   <g id="patch_98">
    <path clip-path="url(#p2c1eb53916)" d="M 268.495495 395.7 
L 281.790897 395.7 
L 281.790897 295.885177 
L 268.495495 295.885177 
z
" style="fill:#009337;opacity:0.5;"/>
   </g>
   <g id="patch_99">
    <path clip-path="url(#p2c1eb53916)" d="M 281.790897 395.7 
L 295.086298 395.7 
L 295.086298 315.755977 
L 281.790897 315.755977 
z
" style="fill:#009337;opacity:0.5;"/>
   </g>
   <g id="patch_100">
    <path clip-path="url(#p2c1eb53916)" d="M 295.086298 395.7 
L 308.3817 395.7 
L 308.3817 331.81114 
L 295.086298 331.81114 
z
" style="fill:#009337;opacity:0.5;"/>
   </g>
   <g id="patch_101">
    <path clip-path="url(#p2c1eb53916)" d="M 308.3817 395.7 
L 321.677101 395.7 
L 321.677101 344.30873 
L 308.3817 344.30873 
z
" style="fill:#009337;opacity:0.5;"/>
   </g>
   <g id="patch_102">
    <path clip-path="url(#p2c1eb53916)" d="M 321.677101 395.7 
L 334.972503 395.7 
L 334.972503 357.174981 
L 321.677101 357.174981 
z
" style="fill:#009337;opacity:0.5;"/>
   </g>
   <g id="patch_103">
    <path clip-path="url(#p2c1eb53916)" d="M 334.972503 395.7 
L 348.267905 395.7 
L 348.267905 365.064315 
L 334.972503 365.064315 
z
" style="fill:#009337;opacity:0.5;"/>
   </g>
   <g id="patch_104">
    <path clip-path="url(#p2c1eb53916)" d="M 348.267905 395.7 
L 361.563306 395.7 
L 361.563306 372.566555 
L 348.267905 372.566555 
z
" style="fill:#009337;opacity:0.5;"/>
   </g>
   <g id="patch_105">
    <path clip-path="url(#p2c1eb53916)" d="M 361.563306 395.7 
L 374.858708 395.7 
L 374.858708 378.594154 
L 361.563306 378.594154 
z
" style="fill:#009337;opacity:0.5;"/>
   </g>
   <g id="patch_106">
    <path clip-path="url(#p2c1eb53916)" d="M 374.858708 395.7 
L 388.154109 395.7 
L 388.154109 382.77845 
L 374.858708 382.77845 
z
" style="fill:#009337;opacity:0.5;"/>
   </g>
   <g id="patch_107">
    <path clip-path="url(#p2c1eb53916)" d="M 388.154109 395.7 
L 401.449511 395.7 
L 401.449511 386.096395 
L 388.154109 386.096395 
z
" style="fill:#009337;opacity:0.5;"/>
   </g>
   <g id="patch_108">
    <path clip-path="url(#p2c1eb53916)" d="M 401.449511 395.7 
L 414.744912 395.7 
L 414.744912 389.395906 
L 401.449511 389.395906 
z
" style="fill:#009337;opacity:0.5;"/>
   </g>
   <g id="patch_109">
    <path clip-path="url(#p2c1eb53916)" d="M 414.744912 395.7 
L 428.040314 395.7 
L 428.040314 391.220775 
L 414.744912 391.220775 
z
" style="fill:#009337;opacity:0.5;"/>
   </g>
   <g id="patch_110">
    <path clip-path="url(#p2c1eb53916)" d="M 428.040314 395.7 
L 441.335716 395.7 
L 441.335716 391.755333 
L 428.040314 391.755333 
z
" style="fill:#009337;opacity:0.5;"/>
   </g>
   <g id="patch_111">
    <path clip-path="url(#p2c1eb53916)" d="M 441.335716 395.7 
L 454.631117 395.7 
L 454.631117 393.451171 
L 441.335716 393.451171 
z
" style="fill:#009337;opacity:0.5;"/>
   </g>
   <g id="patch_112">
    <path clip-path="url(#p2c1eb53916)" d="M 454.631117 395.7 
L 467.926519 395.7 
L 467.926519 393.819832 
L 454.631117 393.819832 
z
" style="fill:#009337;opacity:0.5;"/>
   </g>
   <g id="patch_113">
    <path clip-path="url(#p2c1eb53916)" d="M 467.926519 395.7 
L 481.22192 395.7 
L 481.22192 394.612452 
L 467.926519 394.612452 
z
" style="fill:#009337;opacity:0.5;"/>
   </g>
   <g id="patch_114">
    <path clip-path="url(#p2c1eb53916)" d="M 481.22192 395.7 
L 494.517322 395.7 
L 494.517322 395.017978 
L 481.22192 395.017978 
z
" style="fill:#009337;opacity:0.5;"/>
   </g>
   <g id="patch_115">
    <path clip-path="url(#p2c1eb53916)" d="M 494.517322 395.7 
L 507.812723 395.7 
L 507.812723 395.128576 
L 494.517322 395.128576 
z
" style="fill:#009337;opacity:0.5;"/>
   </g>
   <g id="patch_116">
    <path clip-path="url(#p2c1eb53916)" d="M 507.812723 395.7 
L 521.108125 395.7 
L 521.108125 395.349773 
L 507.812723 395.349773 
z
" style="fill:#009337;opacity:0.5;"/>
   </g>
   <g id="patch_117">
    <path clip-path="url(#p2c1eb53916)" d="M 521.108125 395.7 
L 534.403527 395.7 
L 534.403527 395.534103 
L 521.108125 395.534103 
z
" style="fill:#009337;opacity:0.5;"/>
   </g>
   <g id="patch_118">
    <path clip-path="url(#p2c1eb53916)" d="M 534.403527 395.7 
L 547.698928 395.7 
L 547.698928 395.570969 
L 534.403527 395.570969 
z
" style="fill:#009337;opacity:0.5;"/>
   </g>
   <g id="patch_119">
    <path clip-path="url(#p2c1eb53916)" d="M 547.698928 395.7 
L 560.99433 395.7 
L 560.99433 395.663134 
L 547.698928 395.663134 
z
" style="fill:#009337;opacity:0.5;"/>
   </g>
   <g id="matplotlib.axis_1">
    <g id="xtick_1">
     <g id="line2d_1">
      <defs>
       <path d="M 0 0 
L 0 4 
" id="m926eb7460d" style="stroke:#000000;stroke-width:0.8;"/>
      </defs>
      <g>
       <use style="stroke:#000000;stroke-width:0.8;" x="151.10514" xlink:href="#m926eb7460d" y="395.7"/>
      </g>
     </g>
     <g id="text_1">
      <!-- 10¹ -->
      <defs>
       <path d="M 12.40625 8.296875 
L 28.515625 8.296875 
L 28.515625 63.921875 
L 10.984375 60.40625 
L 10.984375 69.390625 
L 28.421875 72.90625 
L 38.28125 72.90625 
L 38.28125 8.296875 
L 54.390625 8.296875 
L 54.390625 0 
L 12.40625 0 
z
" id="DejaVuSans-31"/>
       <path d="M 31.78125 66.40625 
Q 24.171875 66.40625 20.328125 58.90625 
Q 16.5 51.421875 16.5 36.375 
Q 16.5 21.390625 20.328125 13.890625 
Q 24.171875 6.390625 31.78125 6.390625 
Q 39.453125 6.390625 43.28125 13.890625 
Q 47.125 21.390625 47.125 36.375 
Q 47.125 51.421875 43.28125 58.90625 
Q 39.453125 66.40625 31.78125 66.40625 
z
M 31.78125 74.21875 
Q 44.046875 74.21875 50.515625 64.515625 
Q 56.984375 54.828125 56.984375 36.375 
Q 56.984375 17.96875 50.515625 8.265625 
Q 44.046875 -1.421875 31.78125 -1.421875 
Q 19.53125 -1.421875 13.0625 8.265625 
Q 6.59375 17.96875 6.59375 36.375 
Q 6.59375 54.828125 13.0625 64.515625 
Q 19.53125 74.21875 31.78125 74.21875 
z
" id="DejaVuSans-30"/>
       <path d="M 7.625 37.984375 
L 17.578125 37.984375 
L 17.578125 67.828125 
L 6.6875 65.828125 
L 6.6875 71.484375 
L 17.921875 73.390625 
L 24.609375 73.390625 
L 24.609375 37.984375 
L 34.625 37.984375 
L 34.625 32.625 
L 7.625 32.625 
z
" id="DejaVuSans-b9"/>
      </defs>
      <g transform="translate(136.044203 416.877187)scale(0.18 -0.18)">
       <use xlink:href="#DejaVuSans-31"/>
       <use x="63.623047" xlink:href="#DejaVuSans-30"/>
       <use x="127.246094" xlink:href="#DejaVuSans-b9"/>
      </g>
     </g>
    </g>
    <g id="xtick_2">
     <g id="line2d_2">
      <g>
       <use style="stroke:#000000;stroke-width:0.8;" x="259.736612" xlink:href="#m926eb7460d" y="395.7"/>
      </g>
     </g>
     <g id="text_2">
      <!-- 10² -->
      <defs>
       <path d="M 13.09375 38.1875 
L 33.796875 38.1875 
L 33.796875 32.625 
L 4.59375 32.625 
L 4.59375 37.984375 
Q 6.25 39.5 9.328125 42.234375 
Q 26.125 57.125 26.125 61.71875 
Q 26.125 64.9375 23.578125 66.90625 
Q 21.046875 68.890625 16.890625 68.890625 
Q 14.359375 68.890625 11.375 68.03125 
Q 8.40625 67.1875 4.890625 65.484375 
L 4.890625 71.484375 
Q 8.640625 72.859375 11.890625 73.53125 
Q 15.140625 74.21875 17.921875 74.21875 
Q 25 74.21875 29.25 71 
Q 33.5 67.78125 33.5 62.5 
Q 33.5 55.71875 17.328125 41.84375 
Q 14.59375 39.5 13.09375 38.1875 
z
" id="DejaVuSans-b2"/>
      </defs>
      <g transform="translate(244.675675 416.877187)scale(0.18 -0.18)">
       <use xlink:href="#DejaVuSans-31"/>
       <use x="63.623047" xlink:href="#DejaVuSans-30"/>
       <use x="127.246094" xlink:href="#DejaVuSans-b2"/>
      </g>
     </g>
    </g>
    <g id="xtick_3">
     <g id="line2d_3">
      <g>
       <use style="stroke:#000000;stroke-width:0.8;" x="368.368084" xlink:href="#m926eb7460d" y="395.7"/>
      </g>
     </g>
     <g id="text_3">
      <!-- 10³ -->
      <defs>
       <path d="M 25.59375 54.6875 
Q 30.078125 53.8125 32.546875 51.140625 
Q 35.015625 48.484375 35.015625 44.484375 
Q 35.015625 38.421875 30.375 35.15625 
Q 25.734375 31.890625 17.09375 31.890625 
Q 14.3125 31.890625 11.25 32.390625 
Q 8.203125 32.90625 4.78125 33.890625 
L 4.78125 39.796875 
Q 7.328125 38.484375 10.234375 37.84375 
Q 13.140625 37.203125 16.40625 37.203125 
Q 21.734375 37.203125 24.65625 39.125 
Q 27.59375 41.0625 27.59375 44.484375 
Q 27.59375 48.09375 24.875 49.953125 
Q 22.171875 51.8125 16.890625 51.8125 
L 12.703125 51.8125 
L 12.703125 57.078125 
L 17.28125 57.078125 
Q 21.875 57.078125 24.234375 58.609375 
Q 26.609375 60.15625 26.609375 63.09375 
Q 26.609375 65.921875 24.171875 67.40625 
Q 21.734375 68.890625 17.09375 68.890625 
Q 15.140625 68.890625 12.640625 68.453125 
Q 10.15625 68.015625 6.203125 66.890625 
L 6.203125 72.515625 
Q 9.765625 73.34375 12.890625 73.78125 
Q 16.015625 74.21875 18.703125 74.21875 
Q 25.734375 74.21875 29.859375 71.328125 
Q 33.984375 68.453125 33.984375 63.625 
Q 33.984375 60.25 31.78125 57.90625 
Q 29.59375 55.5625 25.59375 54.6875 
z
" id="DejaVuSans-b3"/>
      </defs>
      <g transform="translate(353.307147 416.877187)scale(0.18 -0.18)">
       <use xlink:href="#DejaVuSans-31"/>
       <use x="63.623047" xlink:href="#DejaVuSans-30"/>
       <use x="127.246094" xlink:href="#DejaVuSans-b3"/>
      </g>
     </g>
    </g>
    <g id="xtick_4">
     <g id="line2d_4">
      <g>
       <use style="stroke:#000000;stroke-width:0.8;" x="476.999556" xlink:href="#m926eb7460d" y="395.7"/>
      </g>
     </g>
     <g id="text_4">
      <!-- 10⁴ -->
      <defs>
       <path d="M 23.296875 67.484375 
L 8.203125 47.015625 
L 23.296875 47.015625 
z
M 22.21875 73.390625 
L 30.328125 73.390625 
L 30.328125 47.015625 
L 36.921875 47.015625 
L 36.921875 41.703125 
L 30.328125 41.703125 
L 30.328125 32.625 
L 23.296875 32.625 
L 23.296875 41.703125 
L 3.078125 41.703125 
L 3.078125 47.609375 
z
" id="DejaVuSans-2074"/>
      </defs>
      <g transform="translate(461.938619 416.877187)scale(0.18 -0.18)">
       <use xlink:href="#DejaVuSans-31"/>
       <use x="63.623047" xlink:href="#DejaVuSans-30"/>
       <use x="127.246094" xlink:href="#DejaVuSans-2074"/>
      </g>
     </g>
    </g>
    <g id="xtick_5">
     <g id="line2d_5">
      <g>
       <use style="stroke:#000000;stroke-width:0.8;" x="585.631028" xlink:href="#m926eb7460d" y="395.7"/>
      </g>
     </g>
     <g id="text_5">
      <!-- 10⁵ -->
      <defs>
       <path d="M 6.9375 73.390625 
L 31.84375 73.390625 
L 31.84375 68.75 
L 12.75 68.75 
L 12.75 58.796875 
Q 14.109375 59.234375 15.53125 59.421875 
Q 16.890625 59.625 18.265625 59.625 
Q 26.125 59.625 30.71875 55.859375 
Q 35.296875 52.15625 35.296875 45.75 
Q 35.296875 39.15625 30.5625 35.5 
Q 25.875 31.890625 17.28125 31.890625 
Q 14.359375 31.890625 11.28125 32.328125 
Q 8.203125 32.765625 4.984375 33.640625 
L 4.984375 39.15625 
Q 7.765625 37.84375 10.796875 37.15625 
Q 13.8125 36.53125 17.1875 36.53125 
Q 22.609375 36.53125 25.78125 39.015625 
Q 28.953125 41.5 28.953125 45.75 
Q 28.953125 50 25.78125 52.484375 
Q 22.609375 54.984375 17.1875 54.984375 
Q 14.65625 54.984375 12.109375 54.484375 
Q 9.578125 54 6.9375 52.984375 
z
" id="DejaVuSans-2075"/>
      </defs>
      <g transform="translate(570.570091 416.877187)scale(0.18 -0.18)">
       <use xlink:href="#DejaVuSans-31"/>
       <use x="63.623047" xlink:href="#DejaVuSans-30"/>
       <use x="127.246094" xlink:href="#DejaVuSans-2075"/>
      </g>
     </g>
    </g>
    <g id="xtick_6">
     <g id="line2d_6">
      <g>
       <use style="stroke:#000000;stroke-width:0.8;" x="694.2625" xlink:href="#m926eb7460d" y="395.7"/>
      </g>
     </g>
     <g id="text_6">
      <!-- 10⁶ -->
      <defs>
       <path d="M 21.234375 55.328125 
Q 16.9375 55.328125 14.453125 52.78125 
Q 11.96875 50.203125 11.96875 45.75 
Q 11.96875 41.359375 14.453125 38.8125 
Q 16.9375 36.234375 21.234375 36.234375 
Q 25.484375 36.234375 27.984375 38.8125 
Q 30.46875 41.359375 30.46875 45.75 
Q 30.46875 50.203125 27.984375 52.78125 
Q 25.484375 55.328125 21.234375 55.328125 
z
M 33.84375 72.609375 
L 33.84375 67.578125 
Q 31.453125 68.5625 29 69.046875 
Q 26.5625 69.578125 24.171875 69.578125 
Q 17.921875 69.578125 14.59375 65.921875 
Q 11.28125 62.203125 10.796875 54.734375 
Q 12.640625 57.125 15.4375 58.40625 
Q 18.265625 59.671875 21.578125 59.671875 
Q 28.65625 59.671875 32.765625 55.953125 
Q 36.859375 52.203125 36.859375 45.75 
Q 36.859375 39.546875 32.5625 35.6875 
Q 28.328125 31.890625 21.234375 31.890625 
Q 13.09375 31.890625 8.796875 37.296875 
Q 4.5 42.71875 4.5 53.078125 
Q 4.5 62.75 9.765625 68.453125 
Q 15.046875 74.21875 23.921875 74.21875 
Q 26.3125 74.21875 28.765625 73.828125 
Q 31.203125 73.390625 33.84375 72.609375 
z
" id="DejaVuSans-2076"/>
      </defs>
      <g transform="translate(679.201563 416.877187)scale(0.18 -0.18)">
       <use xlink:href="#DejaVuSans-31"/>
       <use x="63.623047" xlink:href="#DejaVuSans-30"/>
       <use x="127.246094" xlink:href="#DejaVuSans-2076"/>
      </g>
     </g>
    </g>
    <g id="xtick_7">
     <g id="line2d_7">
      <defs>
       <path d="M 0 0 
L 0 4 
" id="mf04ef2339d" style="stroke:#000000;stroke-width:0.6;"/>
      </defs>
      <g>
       <use style="stroke:#000000;stroke-width:0.6;" x="75.175" xlink:href="#mf04ef2339d" y="395.7"/>
      </g>
     </g>
    </g>
    <g id="xtick_8">
     <g id="line2d_8">
      <g>
       <use style="stroke:#000000;stroke-width:0.6;" x="94.304053" xlink:href="#mf04ef2339d" y="395.7"/>
      </g>
     </g>
    </g>
    <g id="xtick_9">
     <g id="line2d_9">
      <g>
       <use style="stroke:#000000;stroke-width:0.6;" x="107.876332" xlink:href="#mf04ef2339d" y="395.7"/>
      </g>
     </g>
    </g>
    <g id="xtick_10">
     <g id="line2d_10">
      <g>
       <use style="stroke:#000000;stroke-width:0.6;" x="118.403809" xlink:href="#mf04ef2339d" y="395.7"/>
      </g>
     </g>
    </g>
    <g id="xtick_11">
     <g id="line2d_11">
      <g>
       <use style="stroke:#000000;stroke-width:0.6;" x="127.005384" xlink:href="#mf04ef2339d" y="395.7"/>
      </g>
     </g>
    </g>
    <g id="xtick_12">
     <g id="line2d_12">
      <g>
       <use style="stroke:#000000;stroke-width:0.6;" x="134.277912" xlink:href="#mf04ef2339d" y="395.7"/>
      </g>
     </g>
    </g>
    <g id="xtick_13">
     <g id="line2d_13">
      <g>
       <use style="stroke:#000000;stroke-width:0.6;" x="140.577663" xlink:href="#mf04ef2339d" y="395.7"/>
      </g>
     </g>
    </g>
    <g id="xtick_14">
     <g id="line2d_14">
      <g>
       <use style="stroke:#000000;stroke-width:0.6;" x="146.134437" xlink:href="#mf04ef2339d" y="395.7"/>
      </g>
     </g>
    </g>
    <g id="xtick_15">
     <g id="line2d_15">
      <g>
       <use style="stroke:#000000;stroke-width:0.6;" x="183.806472" xlink:href="#mf04ef2339d" y="395.7"/>
      </g>
     </g>
    </g>
    <g id="xtick_16">
     <g id="line2d_16">
      <g>
       <use style="stroke:#000000;stroke-width:0.6;" x="202.935525" xlink:href="#mf04ef2339d" y="395.7"/>
      </g>
     </g>
    </g>
    <g id="xtick_17">
     <g id="line2d_17">
      <g>
       <use style="stroke:#000000;stroke-width:0.6;" x="216.507803" xlink:href="#mf04ef2339d" y="395.7"/>
      </g>
     </g>
    </g>
    <g id="xtick_18">
     <g id="line2d_18">
      <g>
       <use style="stroke:#000000;stroke-width:0.6;" x="227.035281" xlink:href="#mf04ef2339d" y="395.7"/>
      </g>
     </g>
    </g>
    <g id="xtick_19">
     <g id="line2d_19">
      <g>
       <use style="stroke:#000000;stroke-width:0.6;" x="235.636856" xlink:href="#mf04ef2339d" y="395.7"/>
      </g>
     </g>
    </g>
    <g id="xtick_20">
     <g id="line2d_20">
      <g>
       <use style="stroke:#000000;stroke-width:0.6;" x="242.909384" xlink:href="#mf04ef2339d" y="395.7"/>
      </g>
     </g>
    </g>
    <g id="xtick_21">
     <g id="line2d_21">
      <g>
       <use style="stroke:#000000;stroke-width:0.6;" x="249.209135" xlink:href="#mf04ef2339d" y="395.7"/>
      </g>
     </g>
    </g>
    <g id="xtick_22">
     <g id="line2d_22">
      <g>
       <use style="stroke:#000000;stroke-width:0.6;" x="254.765909" xlink:href="#mf04ef2339d" y="395.7"/>
      </g>
     </g>
    </g>
    <g id="xtick_23">
     <g id="line2d_23">
      <g>
       <use style="stroke:#000000;stroke-width:0.6;" x="292.437944" xlink:href="#mf04ef2339d" y="395.7"/>
      </g>
     </g>
    </g>
    <g id="xtick_24">
     <g id="line2d_24">
      <g>
       <use style="stroke:#000000;stroke-width:0.6;" x="311.566997" xlink:href="#mf04ef2339d" y="395.7"/>
      </g>
     </g>
    </g>
    <g id="xtick_25">
     <g id="line2d_25">
      <g>
       <use style="stroke:#000000;stroke-width:0.6;" x="325.139275" xlink:href="#mf04ef2339d" y="395.7"/>
      </g>
     </g>
    </g>
    <g id="xtick_26">
     <g id="line2d_26">
      <g>
       <use style="stroke:#000000;stroke-width:0.6;" x="335.666753" xlink:href="#mf04ef2339d" y="395.7"/>
      </g>
     </g>
    </g>
    <g id="xtick_27">
     <g id="line2d_27">
      <g>
       <use style="stroke:#000000;stroke-width:0.6;" x="344.268328" xlink:href="#mf04ef2339d" y="395.7"/>
      </g>
     </g>
    </g>
    <g id="xtick_28">
     <g id="line2d_28">
      <g>
       <use style="stroke:#000000;stroke-width:0.6;" x="351.540856" xlink:href="#mf04ef2339d" y="395.7"/>
      </g>
     </g>
    </g>
    <g id="xtick_29">
     <g id="line2d_29">
      <g>
       <use style="stroke:#000000;stroke-width:0.6;" x="357.840607" xlink:href="#mf04ef2339d" y="395.7"/>
      </g>
     </g>
    </g>
    <g id="xtick_30">
     <g id="line2d_30">
      <g>
       <use style="stroke:#000000;stroke-width:0.6;" x="363.397381" xlink:href="#mf04ef2339d" y="395.7"/>
      </g>
     </g>
    </g>
    <g id="xtick_31">
     <g id="line2d_31">
      <g>
       <use style="stroke:#000000;stroke-width:0.6;" x="401.069416" xlink:href="#mf04ef2339d" y="395.7"/>
      </g>
     </g>
    </g>
    <g id="xtick_32">
     <g id="line2d_32">
      <g>
       <use style="stroke:#000000;stroke-width:0.6;" x="420.198468" xlink:href="#mf04ef2339d" y="395.7"/>
      </g>
     </g>
    </g>
    <g id="xtick_33">
     <g id="line2d_33">
      <g>
       <use style="stroke:#000000;stroke-width:0.6;" x="433.770747" xlink:href="#mf04ef2339d" y="395.7"/>
      </g>
     </g>
    </g>
    <g id="xtick_34">
     <g id="line2d_34">
      <g>
       <use style="stroke:#000000;stroke-width:0.6;" x="444.298225" xlink:href="#mf04ef2339d" y="395.7"/>
      </g>
     </g>
    </g>
    <g id="xtick_35">
     <g id="line2d_35">
      <g>
       <use style="stroke:#000000;stroke-width:0.6;" x="452.8998" xlink:href="#mf04ef2339d" y="395.7"/>
      </g>
     </g>
    </g>
    <g id="xtick_36">
     <g id="line2d_36">
      <g>
       <use style="stroke:#000000;stroke-width:0.6;" x="460.172328" xlink:href="#mf04ef2339d" y="395.7"/>
      </g>
     </g>
    </g>
    <g id="xtick_37">
     <g id="line2d_37">
      <g>
       <use style="stroke:#000000;stroke-width:0.6;" x="466.472079" xlink:href="#mf04ef2339d" y="395.7"/>
      </g>
     </g>
    </g>
    <g id="xtick_38">
     <g id="line2d_38">
      <g>
       <use style="stroke:#000000;stroke-width:0.6;" x="472.028853" xlink:href="#mf04ef2339d" y="395.7"/>
      </g>
     </g>
    </g>
    <g id="xtick_39">
     <g id="line2d_39">
      <g>
       <use style="stroke:#000000;stroke-width:0.6;" x="509.700888" xlink:href="#mf04ef2339d" y="395.7"/>
      </g>
     </g>
    </g>
    <g id="xtick_40">
     <g id="line2d_40">
      <g>
       <use style="stroke:#000000;stroke-width:0.6;" x="528.82994" xlink:href="#mf04ef2339d" y="395.7"/>
      </g>
     </g>
    </g>
    <g id="xtick_41">
     <g id="line2d_41">
      <g>
       <use style="stroke:#000000;stroke-width:0.6;" x="542.402219" xlink:href="#mf04ef2339d" y="395.7"/>
      </g>
     </g>
    </g>
    <g id="xtick_42">
     <g id="line2d_42">
      <g>
       <use style="stroke:#000000;stroke-width:0.6;" x="552.929697" xlink:href="#mf04ef2339d" y="395.7"/>
      </g>
     </g>
    </g>
    <g id="xtick_43">
     <g id="line2d_43">
      <g>
       <use style="stroke:#000000;stroke-width:0.6;" x="561.531272" xlink:href="#mf04ef2339d" y="395.7"/>
      </g>
     </g>
    </g>
    <g id="xtick_44">
     <g id="line2d_44">
      <g>
       <use style="stroke:#000000;stroke-width:0.6;" x="568.8038" xlink:href="#mf04ef2339d" y="395.7"/>
      </g>
     </g>
    </g>
    <g id="xtick_45">
     <g id="line2d_45">
      <g>
       <use style="stroke:#000000;stroke-width:0.6;" x="575.103551" xlink:href="#mf04ef2339d" y="395.7"/>
      </g>
     </g>
    </g>
    <g id="xtick_46">
     <g id="line2d_46">
      <g>
       <use style="stroke:#000000;stroke-width:0.6;" x="580.660325" xlink:href="#mf04ef2339d" y="395.7"/>
      </g>
     </g>
    </g>
    <g id="xtick_47">
     <g id="line2d_47">
      <g>
       <use style="stroke:#000000;stroke-width:0.6;" x="618.33236" xlink:href="#mf04ef2339d" y="395.7"/>
      </g>
     </g>
    </g>
    <g id="xtick_48">
     <g id="line2d_48">
      <g>
       <use style="stroke:#000000;stroke-width:0.6;" x="637.461412" xlink:href="#mf04ef2339d" y="395.7"/>
      </g>
     </g>
    </g>
    <g id="xtick_49">
     <g id="line2d_49">
      <g>
       <use style="stroke:#000000;stroke-width:0.6;" x="651.033691" xlink:href="#mf04ef2339d" y="395.7"/>
      </g>
     </g>
    </g>
    <g id="xtick_50">
     <g id="line2d_50">
      <g>
       <use style="stroke:#000000;stroke-width:0.6;" x="661.561168" xlink:href="#mf04ef2339d" y="395.7"/>
      </g>
     </g>
    </g>
    <g id="xtick_51">
     <g id="line2d_51">
      <g>
       <use style="stroke:#000000;stroke-width:0.6;" x="670.162744" xlink:href="#mf04ef2339d" y="395.7"/>
      </g>
     </g>
    </g>
    <g id="xtick_52">
     <g id="line2d_52">
      <g>
       <use style="stroke:#000000;stroke-width:0.6;" x="677.435272" xlink:href="#mf04ef2339d" y="395.7"/>
      </g>
     </g>
    </g>
    <g id="xtick_53">
     <g id="line2d_53">
      <g>
       <use style="stroke:#000000;stroke-width:0.6;" x="683.735023" xlink:href="#mf04ef2339d" y="395.7"/>
      </g>
     </g>
    </g>
    <g id="xtick_54">
     <g id="line2d_54">
      <g>
       <use style="stroke:#000000;stroke-width:0.6;" x="689.291796" xlink:href="#mf04ef2339d" y="395.7"/>
      </g>
     </g>
    </g>
   </g>
   <g id="matplotlib.axis_2">
    <g id="ytick_1">
     <g id="line2d_55">
      <defs>
       <path d="M 0 0 
L -4 0 
" id="mbcf4505d0d" style="stroke:#000000;stroke-width:0.8;"/>
      </defs>
      <g>
       <use style="stroke:#000000;stroke-width:0.8;" x="75.175" xlink:href="#mbcf4505d0d" y="395.7"/>
      </g>
     </g>
     <g id="text_7">
      <!-- 0 -->
      <g transform="translate(56.2225 402.538594)scale(0.18 -0.18)">
       <use xlink:href="#DejaVuSans-30"/>
      </g>
     </g>
    </g>
    <g id="ytick_2">
     <g id="line2d_56">
      <g>
       <use style="stroke:#000000;stroke-width:0.8;" x="75.175" xlink:href="#mbcf4505d0d" y="349.617441"/>
      </g>
     </g>
    </g>
    <g id="ytick_3">
     <g id="line2d_57">
      <g>
       <use style="stroke:#000000;stroke-width:0.8;" x="75.175" xlink:href="#mbcf4505d0d" y="303.534882"/>
      </g>
     </g>
     <g id="text_8">
      <!-- 5 -->
      <defs>
       <path d="M 10.796875 72.90625 
L 49.515625 72.90625 
L 49.515625 64.59375 
L 19.828125 64.59375 
L 19.828125 46.734375 
Q 21.96875 47.46875 24.109375 47.828125 
Q 26.265625 48.1875 28.421875 48.1875 
Q 40.625 48.1875 47.75 41.5 
Q 54.890625 34.8125 54.890625 23.390625 
Q 54.890625 11.625 47.5625 5.09375 
Q 40.234375 -1.421875 26.90625 -1.421875 
Q 22.3125 -1.421875 17.546875 -0.640625 
Q 12.796875 0.140625 7.71875 1.703125 
L 7.71875 11.625 
Q 12.109375 9.234375 16.796875 8.0625 
Q 21.484375 6.890625 26.703125 6.890625 
Q 35.15625 6.890625 40.078125 11.328125 
Q 45.015625 15.765625 45.015625 23.390625 
Q 45.015625 31 40.078125 35.4375 
Q 35.15625 39.890625 26.703125 39.890625 
Q 22.75 39.890625 18.8125 39.015625 
Q 14.890625 38.140625 10.796875 36.28125 
z
" id="DejaVuSans-35"/>
      </defs>
      <g transform="translate(56.2225 310.373476)scale(0.18 -0.18)">
       <use xlink:href="#DejaVuSans-35"/>
      </g>
     </g>
    </g>
    <g id="ytick_4">
     <g id="line2d_58">
      <g>
       <use style="stroke:#000000;stroke-width:0.8;" x="75.175" xlink:href="#mbcf4505d0d" y="257.452323"/>
      </g>
     </g>
    </g>
    <g id="ytick_5">
     <g id="line2d_59">
      <g>
       <use style="stroke:#000000;stroke-width:0.8;" x="75.175" xlink:href="#mbcf4505d0d" y="211.369764"/>
      </g>
     </g>
     <g id="text_9">
      <!-- 10 -->
      <g transform="translate(44.77 218.208358)scale(0.18 -0.18)">
       <use xlink:href="#DejaVuSans-31"/>
       <use x="63.623047" xlink:href="#DejaVuSans-30"/>
      </g>
     </g>
    </g>
    <g id="ytick_6">
     <g id="line2d_60">
      <g>
       <use style="stroke:#000000;stroke-width:0.8;" x="75.175" xlink:href="#mbcf4505d0d" y="165.287205"/>
      </g>
     </g>
    </g>
    <g id="ytick_7">
     <g id="line2d_61">
      <g>
       <use style="stroke:#000000;stroke-width:0.8;" x="75.175" xlink:href="#mbcf4505d0d" y="119.204646"/>
      </g>
     </g>
     <g id="text_10">
      <!-- 15 -->
      <g transform="translate(44.77 126.04324)scale(0.18 -0.18)">
       <use xlink:href="#DejaVuSans-31"/>
       <use x="63.623047" xlink:href="#DejaVuSans-35"/>
      </g>
     </g>
    </g>
    <g id="ytick_8">
     <g id="line2d_62">
      <g>
       <use style="stroke:#000000;stroke-width:0.8;" x="75.175" xlink:href="#mbcf4505d0d" y="73.122087"/>
      </g>
     </g>
    </g>
    <g id="ytick_9">
     <g id="line2d_63">
      <g>
       <use style="stroke:#000000;stroke-width:0.8;" x="75.175" xlink:href="#mbcf4505d0d" y="27.039528"/>
      </g>
     </g>
     <g id="text_11">
      <!-- 20 -->
      <defs>
       <path d="M 19.1875 8.296875 
L 53.609375 8.296875 
L 53.609375 0 
L 7.328125 0 
L 7.328125 8.296875 
Q 12.9375 14.109375 22.625 23.890625 
Q 32.328125 33.6875 34.8125 36.53125 
Q 39.546875 41.84375 41.421875 45.53125 
Q 43.3125 49.21875 43.3125 52.78125 
Q 43.3125 58.59375 39.234375 62.25 
Q 35.15625 65.921875 28.609375 65.921875 
Q 23.96875 65.921875 18.8125 64.3125 
Q 13.671875 62.703125 7.8125 59.421875 
L 7.8125 69.390625 
Q 13.765625 71.78125 18.9375 73 
Q 24.125 74.21875 28.421875 74.21875 
Q 39.75 74.21875 46.484375 68.546875 
Q 53.21875 62.890625 53.21875 53.421875 
Q 53.21875 48.921875 51.53125 44.890625 
Q 49.859375 40.875 45.40625 35.40625 
Q 44.1875 33.984375 37.640625 27.21875 
Q 31.109375 20.453125 19.1875 8.296875 
z
" id="DejaVuSans-32"/>
      </defs>
      <g transform="translate(44.77 33.878121)scale(0.18 -0.18)">
       <use xlink:href="#DejaVuSans-32"/>
       <use x="63.623047" xlink:href="#DejaVuSans-30"/>
      </g>
     </g>
    </g>
    <g id="text_12">
     <!-- Number of GitHub repos (10³) -->
     <defs>
      <path d="M 9.8125 72.90625 
L 23.09375 72.90625 
L 55.421875 11.921875 
L 55.421875 72.90625 
L 64.984375 72.90625 
L 64.984375 0 
L 51.703125 0 
L 19.390625 60.984375 
L 19.390625 0 
L 9.8125 0 
z
" id="DejaVuSans-4e"/>
      <path d="M 8.5 21.578125 
L 8.5 54.6875 
L 17.484375 54.6875 
L 17.484375 21.921875 
Q 17.484375 14.15625 20.5 10.265625 
Q 23.53125 6.390625 29.59375 6.390625 
Q 36.859375 6.390625 41.078125 11.03125 
Q 45.3125 15.671875 45.3125 23.6875 
L 45.3125 54.6875 
L 54.296875 54.6875 
L 54.296875 0 
L 45.3125 0 
L 45.3125 8.40625 
Q 42.046875 3.421875 37.71875 1 
Q 33.40625 -1.421875 27.6875 -1.421875 
Q 18.265625 -1.421875 13.375 4.4375 
Q 8.5 10.296875 8.5 21.578125 
z
M 31.109375 56 
z
" id="DejaVuSans-75"/>
      <path d="M 52 44.1875 
Q 55.375 50.25 60.0625 53.125 
Q 64.75 56 71.09375 56 
Q 79.640625 56 84.28125 50.015625 
Q 88.921875 44.046875 88.921875 33.015625 
L 88.921875 0 
L 79.890625 0 
L 79.890625 32.71875 
Q 79.890625 40.578125 77.09375 44.375 
Q 74.3125 48.1875 68.609375 48.1875 
Q 61.625 48.1875 57.5625 43.546875 
Q 53.515625 38.921875 53.515625 30.90625 
L 53.515625 0 
L 44.484375 0 
L 44.484375 32.71875 
Q 44.484375 40.625 41.703125 44.40625 
Q 38.921875 48.1875 33.109375 48.1875 
Q 26.21875 48.1875 22.15625 43.53125 
Q 18.109375 38.875 18.109375 30.90625 
L 18.109375 0 
L 9.078125 0 
L 9.078125 54.6875 
L 18.109375 54.6875 
L 18.109375 46.1875 
Q 21.1875 51.21875 25.484375 53.609375 
Q 29.78125 56 35.6875 56 
Q 41.65625 56 45.828125 52.96875 
Q 50 49.953125 52 44.1875 
z
" id="DejaVuSans-6d"/>
      <path d="M 48.6875 27.296875 
Q 48.6875 37.203125 44.609375 42.84375 
Q 40.53125 48.484375 33.40625 48.484375 
Q 26.265625 48.484375 22.1875 42.84375 
Q 18.109375 37.203125 18.109375 27.296875 
Q 18.109375 17.390625 22.1875 11.75 
Q 26.265625 6.109375 33.40625 6.109375 
Q 40.53125 6.109375 44.609375 11.75 
Q 48.6875 17.390625 48.6875 27.296875 
z
M 18.109375 46.390625 
Q 20.953125 51.265625 25.265625 53.625 
Q 29.59375 56 35.59375 56 
Q 45.5625 56 51.78125 48.09375 
Q 58.015625 40.1875 58.015625 27.296875 
Q 58.015625 14.40625 51.78125 6.484375 
Q 45.5625 -1.421875 35.59375 -1.421875 
Q 29.59375 -1.421875 25.265625 0.953125 
Q 20.953125 3.328125 18.109375 8.203125 
L 18.109375 0 
L 9.078125 0 
L 9.078125 75.984375 
L 18.109375 75.984375 
z
" id="DejaVuSans-62"/>
      <path d="M 56.203125 29.59375 
L 56.203125 25.203125 
L 14.890625 25.203125 
Q 15.484375 15.921875 20.484375 11.0625 
Q 25.484375 6.203125 34.421875 6.203125 
Q 39.59375 6.203125 44.453125 7.46875 
Q 49.3125 8.734375 54.109375 11.28125 
L 54.109375 2.78125 
Q 49.265625 0.734375 44.1875 -0.34375 
Q 39.109375 -1.421875 33.890625 -1.421875 
Q 20.796875 -1.421875 13.15625 6.1875 
Q 5.515625 13.8125 5.515625 26.8125 
Q 5.515625 40.234375 12.765625 48.109375 
Q 20.015625 56 32.328125 56 
Q 43.359375 56 49.78125 48.890625 
Q 56.203125 41.796875 56.203125 29.59375 
z
M 47.21875 32.234375 
Q 47.125 39.59375 43.09375 43.984375 
Q 39.0625 48.390625 32.421875 48.390625 
Q 24.90625 48.390625 20.390625 44.140625 
Q 15.875 39.890625 15.1875 32.171875 
z
" id="DejaVuSans-65"/>
      <path d="M 41.109375 46.296875 
Q 39.59375 47.171875 37.8125 47.578125 
Q 36.03125 48 33.890625 48 
Q 26.265625 48 22.1875 43.046875 
Q 18.109375 38.09375 18.109375 28.8125 
L 18.109375 0 
L 9.078125 0 
L 9.078125 54.6875 
L 18.109375 54.6875 
L 18.109375 46.1875 
Q 20.953125 51.171875 25.484375 53.578125 
Q 30.03125 56 36.53125 56 
Q 37.453125 56 38.578125 55.875 
Q 39.703125 55.765625 41.0625 55.515625 
z
" id="DejaVuSans-72"/>
      <path id="DejaVuSans-20"/>
      <path d="M 30.609375 48.390625 
Q 23.390625 48.390625 19.1875 42.75 
Q 14.984375 37.109375 14.984375 27.296875 
Q 14.984375 17.484375 19.15625 11.84375 
Q 23.34375 6.203125 30.609375 6.203125 
Q 37.796875 6.203125 41.984375 11.859375 
Q 46.1875 17.53125 46.1875 27.296875 
Q 46.1875 37.015625 41.984375 42.703125 
Q 37.796875 48.390625 30.609375 48.390625 
z
M 30.609375 56 
Q 42.328125 56 49.015625 48.375 
Q 55.71875 40.765625 55.71875 27.296875 
Q 55.71875 13.875 49.015625 6.21875 
Q 42.328125 -1.421875 30.609375 -1.421875 
Q 18.84375 -1.421875 12.171875 6.21875 
Q 5.515625 13.875 5.515625 27.296875 
Q 5.515625 40.765625 12.171875 48.375 
Q 18.84375 56 30.609375 56 
z
" id="DejaVuSans-6f"/>
      <path d="M 37.109375 75.984375 
L 37.109375 68.5 
L 28.515625 68.5 
Q 23.6875 68.5 21.796875 66.546875 
Q 19.921875 64.59375 19.921875 59.515625 
L 19.921875 54.6875 
L 34.71875 54.6875 
L 34.71875 47.703125 
L 19.921875 47.703125 
L 19.921875 0 
L 10.890625 0 
L 10.890625 47.703125 
L 2.296875 47.703125 
L 2.296875 54.6875 
L 10.890625 54.6875 
L 10.890625 58.5 
Q 10.890625 67.625 15.140625 71.796875 
Q 19.390625 75.984375 28.609375 75.984375 
z
" id="DejaVuSans-66"/>
      <path d="M 59.515625 10.40625 
L 59.515625 29.984375 
L 43.40625 29.984375 
L 43.40625 38.09375 
L 69.28125 38.09375 
L 69.28125 6.78125 
Q 63.578125 2.734375 56.6875 0.65625 
Q 49.8125 -1.421875 42 -1.421875 
Q 24.90625 -1.421875 15.25 8.5625 
Q 5.609375 18.5625 5.609375 36.375 
Q 5.609375 54.25 15.25 64.234375 
Q 24.90625 74.21875 42 74.21875 
Q 49.125 74.21875 55.546875 72.453125 
Q 61.96875 70.703125 67.390625 67.28125 
L 67.390625 56.78125 
Q 61.921875 61.421875 55.765625 63.765625 
Q 49.609375 66.109375 42.828125 66.109375 
Q 29.4375 66.109375 22.71875 58.640625 
Q 16.015625 51.171875 16.015625 36.375 
Q 16.015625 21.625 22.71875 14.15625 
Q 29.4375 6.6875 42.828125 6.6875 
Q 48.046875 6.6875 52.140625 7.59375 
Q 56.25 8.5 59.515625 10.40625 
z
" id="DejaVuSans-47"/>
      <path d="M 9.421875 54.6875 
L 18.40625 54.6875 
L 18.40625 0 
L 9.421875 0 
z
M 9.421875 75.984375 
L 18.40625 75.984375 
L 18.40625 64.59375 
L 9.421875 64.59375 
z
" id="DejaVuSans-69"/>
      <path d="M 18.3125 70.21875 
L 18.3125 54.6875 
L 36.8125 54.6875 
L 36.8125 47.703125 
L 18.3125 47.703125 
L 18.3125 18.015625 
Q 18.3125 11.328125 20.140625 9.421875 
Q 21.96875 7.515625 27.59375 7.515625 
L 36.8125 7.515625 
L 36.8125 0 
L 27.59375 0 
Q 17.1875 0 13.234375 3.875 
Q 9.28125 7.765625 9.28125 18.015625 
L 9.28125 47.703125 
L 2.6875 47.703125 
L 2.6875 54.6875 
L 9.28125 54.6875 
L 9.28125 70.21875 
z
" id="DejaVuSans-74"/>
      <path d="M 9.8125 72.90625 
L 19.671875 72.90625 
L 19.671875 43.015625 
L 55.515625 43.015625 
L 55.515625 72.90625 
L 65.375 72.90625 
L 65.375 0 
L 55.515625 0 
L 55.515625 34.71875 
L 19.671875 34.71875 
L 19.671875 0 
L 9.8125 0 
z
" id="DejaVuSans-48"/>
      <path d="M 18.109375 8.203125 
L 18.109375 -20.796875 
L 9.078125 -20.796875 
L 9.078125 54.6875 
L 18.109375 54.6875 
L 18.109375 46.390625 
Q 20.953125 51.265625 25.265625 53.625 
Q 29.59375 56 35.59375 56 
Q 45.5625 56 51.78125 48.09375 
Q 58.015625 40.1875 58.015625 27.296875 
Q 58.015625 14.40625 51.78125 6.484375 
Q 45.5625 -1.421875 35.59375 -1.421875 
Q 29.59375 -1.421875 25.265625 0.953125 
Q 20.953125 3.328125 18.109375 8.203125 
z
M 48.6875 27.296875 
Q 48.6875 37.203125 44.609375 42.84375 
Q 40.53125 48.484375 33.40625 48.484375 
Q 26.265625 48.484375 22.1875 42.84375 
Q 18.109375 37.203125 18.109375 27.296875 
Q 18.109375 17.390625 22.1875 11.75 
Q 26.265625 6.109375 33.40625 6.109375 
Q 40.53125 6.109375 44.609375 11.75 
Q 48.6875 17.390625 48.6875 27.296875 
z
" id="DejaVuSans-70"/>
      <path d="M 44.28125 53.078125 
L 44.28125 44.578125 
Q 40.484375 46.53125 36.375 47.5 
Q 32.28125 48.484375 27.875 48.484375 
Q 21.1875 48.484375 17.84375 46.4375 
Q 14.5 44.390625 14.5 40.28125 
Q 14.5 37.15625 16.890625 35.375 
Q 19.28125 33.59375 26.515625 31.984375 
L 29.59375 31.296875 
Q 39.15625 29.25 43.1875 25.515625 
Q 47.21875 21.78125 47.21875 15.09375 
Q 47.21875 7.46875 41.1875 3.015625 
Q 35.15625 -1.421875 24.609375 -1.421875 
Q 20.21875 -1.421875 15.453125 -0.5625 
Q 10.6875 0.296875 5.421875 2 
L 5.421875 11.28125 
Q 10.40625 8.6875 15.234375 7.390625 
Q 20.0625 6.109375 24.8125 6.109375 
Q 31.15625 6.109375 34.5625 8.28125 
Q 37.984375 10.453125 37.984375 14.40625 
Q 37.984375 18.0625 35.515625 20.015625 
Q 33.0625 21.96875 24.703125 23.78125 
L 21.578125 24.515625 
Q 13.234375 26.265625 9.515625 29.90625 
Q 5.8125 33.546875 5.8125 39.890625 
Q 5.8125 47.609375 11.28125 51.796875 
Q 16.75 56 26.8125 56 
Q 31.78125 56 36.171875 55.265625 
Q 40.578125 54.546875 44.28125 53.078125 
z
" id="DejaVuSans-73"/>
      <path d="M 31 75.875 
Q 24.46875 64.65625 21.28125 53.65625 
Q 18.109375 42.671875 18.109375 31.390625 
Q 18.109375 20.125 21.3125 9.0625 
Q 24.515625 -2 31 -13.1875 
L 23.1875 -13.1875 
Q 15.875 -1.703125 12.234375 9.375 
Q 8.59375 20.453125 8.59375 31.390625 
Q 8.59375 42.28125 12.203125 53.3125 
Q 15.828125 64.359375 23.1875 75.875 
z
" id="DejaVuSans-28"/>
      <path d="M 8.015625 75.875 
L 15.828125 75.875 
Q 23.140625 64.359375 26.78125 53.3125 
Q 30.421875 42.28125 30.421875 31.390625 
Q 30.421875 20.453125 26.78125 9.375 
Q 23.140625 -1.703125 15.828125 -13.1875 
L 8.015625 -13.1875 
Q 14.5 -2 17.703125 9.0625 
Q 20.90625 20.125 20.90625 31.390625 
Q 20.90625 42.671875 17.703125 53.65625 
Q 14.5 64.65625 8.015625 75.875 
z
" id="DejaVuSans-29"/>
     </defs>
     <g transform="translate(25.610625 354.901563)rotate(-90)scale(0.2 -0.2)">
      <use xlink:href="#DejaVuSans-4e"/>
      <use x="74.804688" xlink:href="#DejaVuSans-75"/>
      <use x="138.183594" xlink:href="#DejaVuSans-6d"/>
      <use x="235.595703" xlink:href="#DejaVuSans-62"/>
      <use x="299.072266" xlink:href="#DejaVuSans-65"/>
      <use x="360.595703" xlink:href="#DejaVuSans-72"/>
      <use x="401.708984" xlink:href="#DejaVuSans-20"/>
      <use x="433.496094" xlink:href="#DejaVuSans-6f"/>
      <use x="494.677734" xlink:href="#DejaVuSans-66"/>
      <use x="529.882812" xlink:href="#DejaVuSans-20"/>
      <use x="561.669922" xlink:href="#DejaVuSans-47"/>
      <use x="639.160156" xlink:href="#DejaVuSans-69"/>
      <use x="666.943359" xlink:href="#DejaVuSans-74"/>
      <use x="706.152344" xlink:href="#DejaVuSans-48"/>
      <use x="781.347656" xlink:href="#DejaVuSans-75"/>
      <use x="844.726562" xlink:href="#DejaVuSans-62"/>
      <use x="908.203125" xlink:href="#DejaVuSans-20"/>
      <use x="939.990234" xlink:href="#DejaVuSans-72"/>
      <use x="981.072266" xlink:href="#DejaVuSans-65"/>
      <use x="1042.595703" xlink:href="#DejaVuSans-70"/>
      <use x="1106.072266" xlink:href="#DejaVuSans-6f"/>
      <use x="1167.253906" xlink:href="#DejaVuSans-73"/>
      <use x="1219.353516" xlink:href="#DejaVuSans-20"/>
      <use x="1251.140625" xlink:href="#DejaVuSans-28"/>
      <use x="1290.154297" xlink:href="#DejaVuSans-31"/>
      <use x="1353.777344" xlink:href="#DejaVuSans-30"/>
      <use x="1417.400391" xlink:href="#DejaVuSans-b3"/>
      <use x="1457.488281" xlink:href="#DejaVuSans-29"/>
     </g>
    </g>
   </g>
   <g id="patch_120">
    <path d="M 75.175 395.7 
L 75.175 14.8 
" style="fill:none;stroke:#000000;stroke-linecap:square;stroke-linejoin:miter;stroke-width:0.8;"/>
   </g>
   <g id="patch_121">
    <path d="M 75.175 395.7 
L 694.2625 395.7 
" style="fill:none;stroke:#000000;stroke-linecap:square;stroke-linejoin:miter;stroke-width:0.8;"/>
   </g>
   <g id="legend_1">
    <g id="patch_122">
     <path d="M 482.17375 139.6825 
L 677.4625 139.6825 
Q 682.2625 139.6825 682.2625 134.8825 
L 682.2625 31.6 
Q 682.2625 26.8 677.4625 26.8 
L 482.17375 26.8 
Q 477.37375 26.8 477.37375 31.6 
L 477.37375 134.8825 
Q 477.37375 139.6825 482.17375 139.6825 
z
" style="fill:#ffffff;opacity:0.8;"/>
    </g>
    <g id="patch_123">
     <path d="M 486.97375 54.63625 
L 534.97375 54.63625 
L 534.97375 37.83625 
L 486.97375 37.83625 
z
" style="fill:#040273;opacity:0.7;"/>
    </g>
    <g id="text_13">
     <!-- Commits -->
     <defs>
      <path d="M 64.40625 67.28125 
L 64.40625 56.890625 
Q 59.421875 61.53125 53.78125 63.8125 
Q 48.140625 66.109375 41.796875 66.109375 
Q 29.296875 66.109375 22.65625 58.46875 
Q 16.015625 50.828125 16.015625 36.375 
Q 16.015625 21.96875 22.65625 14.328125 
Q 29.296875 6.6875 41.796875 6.6875 
Q 48.140625 6.6875 53.78125 8.984375 
Q 59.421875 11.28125 64.40625 15.921875 
L 64.40625 5.609375 
Q 59.234375 2.09375 53.4375 0.328125 
Q 47.65625 -1.421875 41.21875 -1.421875 
Q 24.65625 -1.421875 15.125 8.703125 
Q 5.609375 18.84375 5.609375 36.375 
Q 5.609375 53.953125 15.125 64.078125 
Q 24.65625 74.21875 41.21875 74.21875 
Q 47.75 74.21875 53.53125 72.484375 
Q 59.328125 70.75 64.40625 67.28125 
z
" id="DejaVuSans-43"/>
     </defs>
     <g transform="translate(554.17375 54.63625)scale(0.24 -0.24)">
      <use xlink:href="#DejaVuSans-43"/>
      <use x="69.824219" xlink:href="#DejaVuSans-6f"/>
      <use x="131.005859" xlink:href="#DejaVuSans-6d"/>
      <use x="228.417969" xlink:href="#DejaVuSans-6d"/>
      <use x="325.830078" xlink:href="#DejaVuSans-69"/>
      <use x="353.613281" xlink:href="#DejaVuSans-74"/>
      <use x="392.822266" xlink:href="#DejaVuSans-73"/>
     </g>
    </g>
    <g id="patch_124">
     <path d="M 486.97375 89.86375 
L 534.97375 89.86375 
L 534.97375 73.06375 
L 486.97375 73.06375 
z
" style="fill:#ff7f0e;opacity:0.6;"/>
    </g>
    <g id="text_14">
     <!-- Sizes (kB) -->
     <defs>
      <path d="M 53.515625 70.515625 
L 53.515625 60.890625 
Q 47.90625 63.578125 42.921875 64.890625 
Q 37.9375 66.21875 33.296875 66.21875 
Q 25.25 66.21875 20.875 63.09375 
Q 16.5 59.96875 16.5 54.203125 
Q 16.5 49.359375 19.40625 46.890625 
Q 22.3125 44.4375 30.421875 42.921875 
L 36.375 41.703125 
Q 47.40625 39.59375 52.65625 34.296875 
Q 57.90625 29 57.90625 20.125 
Q 57.90625 9.515625 50.796875 4.046875 
Q 43.703125 -1.421875 29.984375 -1.421875 
Q 24.8125 -1.421875 18.96875 -0.25 
Q 13.140625 0.921875 6.890625 3.21875 
L 6.890625 13.375 
Q 12.890625 10.015625 18.65625 8.296875 
Q 24.421875 6.59375 29.984375 6.59375 
Q 38.421875 6.59375 43.015625 9.90625 
Q 47.609375 13.234375 47.609375 19.390625 
Q 47.609375 24.75 44.3125 27.78125 
Q 41.015625 30.8125 33.5 32.328125 
L 27.484375 33.5 
Q 16.453125 35.6875 11.515625 40.375 
Q 6.59375 45.0625 6.59375 53.421875 
Q 6.59375 63.09375 13.40625 68.65625 
Q 20.21875 74.21875 32.171875 74.21875 
Q 37.3125 74.21875 42.625 73.28125 
Q 47.953125 72.359375 53.515625 70.515625 
z
" id="DejaVuSans-53"/>
      <path d="M 5.515625 54.6875 
L 48.1875 54.6875 
L 48.1875 46.484375 
L 14.40625 7.171875 
L 48.1875 7.171875 
L 48.1875 0 
L 4.296875 0 
L 4.296875 8.203125 
L 38.09375 47.515625 
L 5.515625 47.515625 
z
" id="DejaVuSans-7a"/>
      <path d="M 9.078125 75.984375 
L 18.109375 75.984375 
L 18.109375 31.109375 
L 44.921875 54.6875 
L 56.390625 54.6875 
L 27.390625 29.109375 
L 57.625 0 
L 45.90625 0 
L 18.109375 26.703125 
L 18.109375 0 
L 9.078125 0 
z
" id="DejaVuSans-6b"/>
      <path d="M 19.671875 34.8125 
L 19.671875 8.109375 
L 35.5 8.109375 
Q 43.453125 8.109375 47.28125 11.40625 
Q 51.125 14.703125 51.125 21.484375 
Q 51.125 28.328125 47.28125 31.5625 
Q 43.453125 34.8125 35.5 34.8125 
z
M 19.671875 64.796875 
L 19.671875 42.828125 
L 34.28125 42.828125 
Q 41.5 42.828125 45.03125 45.53125 
Q 48.578125 48.25 48.578125 53.8125 
Q 48.578125 59.328125 45.03125 62.0625 
Q 41.5 64.796875 34.28125 64.796875 
z
M 9.8125 72.90625 
L 35.015625 72.90625 
Q 46.296875 72.90625 52.390625 68.21875 
Q 58.5 63.53125 58.5 54.890625 
Q 58.5 48.1875 55.375 44.234375 
Q 52.25 40.28125 46.1875 39.3125 
Q 53.46875 37.75 57.5 32.78125 
Q 61.53125 27.828125 61.53125 20.40625 
Q 61.53125 10.640625 54.890625 5.3125 
Q 48.25 0 35.984375 0 
L 9.8125 0 
z
" id="DejaVuSans-42"/>
     </defs>
     <g transform="translate(554.17375 89.86375)scale(0.24 -0.24)">
      <use xlink:href="#DejaVuSans-53"/>
      <use x="63.476562" xlink:href="#DejaVuSans-69"/>
      <use x="91.259766" xlink:href="#DejaVuSans-7a"/>
      <use x="143.75" xlink:href="#DejaVuSans-65"/>
      <use x="205.273438" xlink:href="#DejaVuSans-73"/>
      <use x="257.373047" xlink:href="#DejaVuSans-20"/>
      <use x="289.160156" xlink:href="#DejaVuSans-28"/>
      <use x="328.173828" xlink:href="#DejaVuSans-6b"/>
      <use x="386.083984" xlink:href="#DejaVuSans-42"/>
      <use x="454.6875" xlink:href="#DejaVuSans-29"/>
     </g>
    </g>
    <g id="patch_125">
     <path d="M 486.97375 125.09125 
L 534.97375 125.09125 
L 534.97375 108.29125 
L 486.97375 108.29125 
z
" style="fill:#009337;opacity:0.5;"/>
    </g>
    <g id="text_15">
     <!-- Branches -->
     <defs>
      <path d="M 34.28125 27.484375 
Q 23.390625 27.484375 19.1875 25 
Q 14.984375 22.515625 14.984375 16.5 
Q 14.984375 11.71875 18.140625 8.90625 
Q 21.296875 6.109375 26.703125 6.109375 
Q 34.1875 6.109375 38.703125 11.40625 
Q 43.21875 16.703125 43.21875 25.484375 
L 43.21875 27.484375 
z
M 52.203125 31.203125 
L 52.203125 0 
L 43.21875 0 
L 43.21875 8.296875 
Q 40.140625 3.328125 35.546875 0.953125 
Q 30.953125 -1.421875 24.3125 -1.421875 
Q 15.921875 -1.421875 10.953125 3.296875 
Q 6 8.015625 6 15.921875 
Q 6 25.140625 12.171875 29.828125 
Q 18.359375 34.515625 30.609375 34.515625 
L 43.21875 34.515625 
L 43.21875 35.40625 
Q 43.21875 41.609375 39.140625 45 
Q 35.0625 48.390625 27.6875 48.390625 
Q 23 48.390625 18.546875 47.265625 
Q 14.109375 46.140625 10.015625 43.890625 
L 10.015625 52.203125 
Q 14.9375 54.109375 19.578125 55.046875 
Q 24.21875 56 28.609375 56 
Q 40.484375 56 46.34375 49.84375 
Q 52.203125 43.703125 52.203125 31.203125 
z
" id="DejaVuSans-61"/>
      <path d="M 54.890625 33.015625 
L 54.890625 0 
L 45.90625 0 
L 45.90625 32.71875 
Q 45.90625 40.484375 42.875 44.328125 
Q 39.84375 48.1875 33.796875 48.1875 
Q 26.515625 48.1875 22.3125 43.546875 
Q 18.109375 38.921875 18.109375 30.90625 
L 18.109375 0 
L 9.078125 0 
L 9.078125 54.6875 
L 18.109375 54.6875 
L 18.109375 46.1875 
Q 21.34375 51.125 25.703125 53.5625 
Q 30.078125 56 35.796875 56 
Q 45.21875 56 50.046875 50.171875 
Q 54.890625 44.34375 54.890625 33.015625 
z
" id="DejaVuSans-6e"/>
      <path d="M 48.78125 52.59375 
L 48.78125 44.1875 
Q 44.96875 46.296875 41.140625 47.34375 
Q 37.3125 48.390625 33.40625 48.390625 
Q 24.65625 48.390625 19.8125 42.84375 
Q 14.984375 37.3125 14.984375 27.296875 
Q 14.984375 17.28125 19.8125 11.734375 
Q 24.65625 6.203125 33.40625 6.203125 
Q 37.3125 6.203125 41.140625 7.25 
Q 44.96875 8.296875 48.78125 10.40625 
L 48.78125 2.09375 
Q 45.015625 0.34375 40.984375 -0.53125 
Q 36.96875 -1.421875 32.421875 -1.421875 
Q 20.0625 -1.421875 12.78125 6.34375 
Q 5.515625 14.109375 5.515625 27.296875 
Q 5.515625 40.671875 12.859375 48.328125 
Q 20.21875 56 33.015625 56 
Q 37.15625 56 41.109375 55.140625 
Q 45.0625 54.296875 48.78125 52.59375 
z
" id="DejaVuSans-63"/>
      <path d="M 54.890625 33.015625 
L 54.890625 0 
L 45.90625 0 
L 45.90625 32.71875 
Q 45.90625 40.484375 42.875 44.328125 
Q 39.84375 48.1875 33.796875 48.1875 
Q 26.515625 48.1875 22.3125 43.546875 
Q 18.109375 38.921875 18.109375 30.90625 
L 18.109375 0 
L 9.078125 0 
L 9.078125 75.984375 
L 18.109375 75.984375 
L 18.109375 46.1875 
Q 21.34375 51.125 25.703125 53.5625 
Q 30.078125 56 35.796875 56 
Q 45.21875 56 50.046875 50.171875 
Q 54.890625 44.34375 54.890625 33.015625 
z
" id="DejaVuSans-68"/>
     </defs>
     <g transform="translate(554.17375 125.09125)scale(0.24 -0.24)">
      <use xlink:href="#DejaVuSans-42"/>
      <use x="68.603516" xlink:href="#DejaVuSans-72"/>
      <use x="109.716797" xlink:href="#DejaVuSans-61"/>
      <use x="170.996094" xlink:href="#DejaVuSans-6e"/>
      <use x="234.375" xlink:href="#DejaVuSans-63"/>
      <use x="289.355469" xlink:href="#DejaVuSans-68"/>
      <use x="352.734375" xlink:href="#DejaVuSans-65"/>
      <use x="414.257812" xlink:href="#DejaVuSans-73"/>
     </g>
    </g>
   </g>
  </g>
 </g>
 <defs>
  <clipPath id="p2c1eb53916">
   <rect height="380.9" width="619.0875" x="75.175" y="14.8"/>
  </clipPath>
 </defs>
</svg>
